<svg xmlns="http://www.w3.org/2000/svg" viewBox="0 0 600 450" width="600" height="450">
  <defs>
    <linearGradient id="bg" x1="0%" y1="0%" x2="100%" y2="100%">
      <stop offset="0%" stop-color="#F6F2EA"/>
      <stop offset="100%" stop-color="#EAE2D3"/>
    </linearGradient>
    <linearGradient id="cover" x1="0%" y1="0%" x2="100%" y2="100%">
      <stop offset="0%" stop-color="#1F3A3D"/>
      <stop offset="100%" stop-color="#102124"/>
    </linearGradient>
    <linearGradient id="spine" x1="0%" y1="0%" x2="100%" y2="0%">
      <stop offset="0%" stop-color="#0B181A"/>
      <stop offset="50%" stop-color="#1B3538"/>
      <stop offset="100%" stop-color="#0A1416"/>
    </linearGradient>
    <linearGradient id="gold" x1="0%" y1="0%" x2="100%" y2="100%">
      <stop offset="0%" stop-color="#E6C675"/>
      <stop offset="100%" stop-color="#B88E22"/>
    </linearGradient>
    <filter id="shadow" x="-15%" y="-10%" width="135%" height="135%">
      <feDropShadow dx="14" dy="20" stdDeviation="16" flood-color="#141B2D" flood-opacity="0.22"/>
    </filter>
  </defs>
  <rect width="600" height="450" fill="url(#bg)"/>
  <circle cx="300" cy="225" r="185" fill="#EFE8DA" opacity="0.7"/>
  <g filter="url(#shadow)" transform="translate(175, 48)">
    <path d="M242 10 L256 20 L256 348 L242 338 Z" fill="#FBF8F1" stroke="#D8CEBE" stroke-width="1"/>
    <path d="M0 16 L24 0 L24 338 L0 354 Z" fill="url(#spine)"/>
    <rect x="24" y="0" width="218" height="338" rx="3" fill="url(#cover)"/>
    <rect x="38" y="14" width="190" height="310" rx="2" fill="none" stroke="url(#gold)" stroke-width="1.4" opacity="0.8"/>
    <text x="133" y="44" text-anchor="middle" fill="#E6C675" font-family="sans-serif" font-size="9" letter-spacing="2.2">CORE CURRICULUM GUIDE</text>
    <!-- Binary Tree Node Illustration -->
    <g transform="translate(133, 120)" stroke="url(#gold)" stroke-width="1.6" fill="#152A2C">
      <line x1="0" y1="-30" x2="-32" y2="2"/>
      <line x1="0" y1="-30" x2="32" y2="2"/>
      <line x1="-32" y1="2" x2="-48" y2="34"/>
      <line x1="-32" y1="2" x2="-14" y2="34"/>
      <line x1="32" y1="2" x2="14" y2="34"/>
      <line x1="32" y1="2" x2="48" y2="34"/>
      <circle cx="0" cy="-30" r="11"/>
      <circle cx="-32" cy="2" r="9"/>
      <circle cx="32" cy="2" r="9"/>
      <circle cx="-48" cy="34" r="7" fill="#E6C675"/>
      <circle cx="-14" cy="34" r="7" fill="#E6C675"/>
      <circle cx="14" cy="34" r="7" fill="#E6C675"/>
      <circle cx="48" cy="34" r="7" fill="#E6C675"/>
    </g>
    <text x="133" y="208" text-anchor="middle" fill="#FAF7F2" font-family="Georgia, serif" font-size="18" font-weight="bold" letter-spacing="0.6">DATA STRUCTURES</text>
    <text x="133" y="234" text-anchor="middle" fill="#E6C675" font-family="Georgia, serif" font-size="20" font-weight="bold" letter-spacing="1.2">MADE EASY</text>
    <text x="133" y="258" text-anchor="middle" fill="#CBD5E1" font-family="sans-serif" font-size="9.5" letter-spacing="1">TREES, GRAPHS &amp; COMPLEXITY</text>
    <line x1="96" y1="276" x2="170" y2="276" stroke="url(#gold)" stroke-width="1"/>
    <text x="133" y="302" text-anchor="middle" fill="#FAF7F2" font-family="sans-serif" font-size="10" letter-spacing="2">ROHAN KULKARNI</text>
  </g>
</svg>
